HIERARCHY
ROOT Hips
{
	OFFSET 0.000000 88.474243 0.000000
	CHANNELS 6 Xposition Yposition Zposition Zrotation Yrotation Xrotation 
	JOINT Hips_Spine
	{
		OFFSET 0.000000 0.000000 0.000000
		CHANNELS 3 Zrotation Yrotation Xrotation
		JOINT Spine
		{
			OFFSET 0.005100 8.711998 -0.691000
			CHANNELS 3 Zrotation Yrotation Xrotation
			JOINT Spine1
			{
				OFFSET -0.009200 8.660301 -1.275000
				CHANNELS 3 Zrotation Yrotation Xrotation
				JOINT Spine2
				{
					OFFSET 0.006300 9.852501 -1.857000
					CHANNELS 3 Zrotation Yrotation Xrotation
					JOINT Spine2_Neck
					{
						OFFSET 0.000000 0.000000 0.000000
						CHANNELS 3 Zrotation Yrotation Xrotation
						JOINT Neck
						{
							OFFSET 0.016300 11.420799 -0.263300
							CHANNELS 3 Zrotation Yrotation Xrotation
							End Site #name: Head
							{
								OFFSET -0.019200 9.262405 2.362500
							}
						}
					}
					JOINT Spine2_LeftShoulder
					{
						OFFSET 0.000000 0.000000 0.000000
						CHANNELS 3 Zrotation Yrotation Xrotation
						JOINT LeftShoulder
						{
							OFFSET 5.616900 6.732201 -0.345700
							CHANNELS 3 Zrotation Yrotation Xrotation
							JOINT LeftArm
							{
								OFFSET 10.664888 -0.183372 -2.440700
								CHANNELS 3 Zrotation Yrotation Xrotation
								JOINT LeftForeArm
								{
									OFFSET 27.459126 0.000000 0.000000
									CHANNELS 3 Zrotation Yrotation Xrotation
									End Site #name: LeftHand
									{
										OFFSET 21.306858 0.000000 0.000000
									}
								}
							}
						}
					}
					JOINT Spine2_RightShoulder
					{
						OFFSET 0.000000 0.000000 0.000000
						CHANNELS 3 Zrotation Yrotation Xrotation
						JOINT RightShoulder
						{
							OFFSET -5.580300 6.737503 -0.344400
							CHANNELS 3 Zrotation Yrotation Xrotation
							JOINT RightArm
							{
								OFFSET -10.679335 -0.188484 -2.383900
								CHANNELS 3 Zrotation Yrotation Xrotation
								JOINT RightForeArm
								{
									OFFSET -27.503529 0.000000 0.000000
									CHANNELS 3 Zrotation Yrotation Xrotation
									End Site #name: RightHand
									{
										OFFSET -21.306808 0.000000 0.000000
									}
								}
							}
						}
					}
				}
			}
		}
	}
	JOINT Hips_LeftUpLeg
	{
		OFFSET 0.000000 0.000000 0.000000
		CHANNELS 3 Zrotation Yrotation Xrotation
		JOINT LeftUpLeg
		{
			OFFSET 6.857700 -6.739601 0.312100
			CHANNELS 3 Zrotation Yrotation Xrotation
			JOINT LeftLeg
			{
				OFFSET -0.367590 -34.731552 -4.572400
				CHANNELS 3 Zrotation Yrotation Xrotation
				End Site #name: LeftFoot
				{
					OFFSET 0.367590 -34.656704 -6.067400
				}
			}
		}
	}
	JOINT Hips_RightUpLeg
	{
		OFFSET 0.000000 0.000000 0.000000
		CHANNELS 3 Zrotation Yrotation Xrotation
		JOINT RightUpLeg
		{
			OFFSET -6.876100 -6.733299 0.301000
			CHANNELS 3 Zrotation Yrotation Xrotation
			JOINT RightLeg
			{
				OFFSET 0.347353 -34.795158 -4.515900
				CHANNELS 3 Zrotation Yrotation Xrotation
				End Site #name: RightFoot
				{
					OFFSET -0.347353 -34.589367 -6.070300
				}
			}
		}
	}
}
MOTION
Frames: 12
Frame Time: 0.041667
0.050019 0.017650 0.046629 -0.427323 1.803177 -3.533290 0.000000 -0.000000 0.000000 1.019811 2.569271 6.064962 -2.729785 1.391491 4.201723 0.000000 0.000000 0.000000 -2.152030 1.049317 1.501880 2.986650 -0.831797 1.076499 -3.110385 0.824955 4.280554 -2.403889 1.368096 -0.475369 -71.303848 -13.826039 45.336780 0.198164 -48.599717 0.559191 -2.029480 1.255448 2.998712 3.435742 1.987075 2.937707 80.284130 -0.407623 46.086358 -0.081676 35.866003 0.591996 0.000000 0.000000 0.000000 2.152491 6.287459 -12.243627 2.185444 5.893741 17.156544 0.000000 0.000000 0.000000 -3.761311 -10.791487 -11.615869 -2.066340 -3.969124 15.552056 
0.094401 0.070146 0.026185 -0.438442 2.429916 -3.616482 0.000000 -0.000000 0.000000 -0.135758 1.331136 1.568093 -2.036093 0.824732 4.019237 0.000000 0.000000 0.000000 -2.152925 0.829766 3.513256 2.349033 -0.296796 2.198787 -2.165999 0.531186 4.459979 -0.358103 3.727072 -0.895830 -67.441155 -8.402243 54.573255 0.072276 -42.352243 0.601111 -2.068606 0.583272 3.438362 3.534721 3.263184 1.776208 84.635265 3.996465 47.988134 0.117011 22.440108 0.374014 0.000000 0.000000 -0.000000 2.302615 5.948536 -10.647706 1.732630 6.487502 14.669824 0.000000 -0.000000 0.000000 -3.563839 -10.519436 -11.240193 -1.602514 -2.778167 15.329200 
0.188472 0.073420 -0.017561 -0.683863 2.805393 -3.710604 0.000000 0.000000 0.000000 -0.342253 1.053651 -0.126810 -1.338665 0.596945 3.773773 0.000000 0.000000 0.000000 -1.704569 0.593985 3.150927 1.711073 -0.286070 4.014537 -1.542178 0.489525 4.112102 -1.626159 5.296248 -0.990813 -65.378742 -6.850682 59.396131 0.097905 -34.613731 0.169184 -1.406088 0.526762 3.109204 3.689245 3.898727 1.166175 81.300884 2.604184 45.547939 0.030282 20.989518 0.128447 -0.000000 0.000000 -0.000000 2.686676 7.403161 -10.246226 1.679148 6.585359 14.311777 0.000000 -0.000000 0.000000 -3.521217 -9.926911 -11.322739 -1.257028 -2.337604 15.777228 
0.303591 0.063143 -0.072534 -0.916432 2.924119 -3.745571 0.000000 0.000000 0.000000 -0.397081 1.042979 -0.140386 -1.237046 0.657956 3.931304 0.000000 0.000000 0.000000 -1.519520 0.579631 3.155705 1.142251 -0.672182 5.823295 -1.380904 0.513874 4.066404 -1.404943 4.812214 -1.024839 -66.404778 -7.783525 60.510494 0.195933 -28.036278 0.057481 -1.131017 0.596109 3.292613 3.189639 5.595769 1.442108 79.753165 3.663680 47.228294 0.009738 24.164553 -0.025180 -0.000000 0.000000 -0.000000 2.898774 8.300425 -10.294190 2.009653 7.096855 14.564083 0.000000 -0.000000 0.000000 -3.376176 -9.838111 -11.554804 -0.929085 -1.616715 16.195115 
0.437977 0.053056 -0.126527 -1.064390 3.078044 -3.769068 0.000000 0.000000 0.000000 -0.393423 1.116381 -0.113090 -1.420023 0.691217 4.057786 0.000000 0.000000 0.000000 -1.690086 0.616252 3.271064 0.877024 -0.967549 6.736551 -1.570451 0.515995 4.164290 -1.529203 4.243223 -0.963579 -67.373803 -8.970768 61.268232 0.247400 -26.334828 0.011619 -1.336094 0.646657 3.432842 2.779760 6.928152 1.796867 79.030136 3.788275 49.473041 -0.026816 27.757708 -0.054182 -0.000000 0.000000 -0.000000 3.044519 9.168121 -10.448419 2.279497 7.511915 14.942042 0.000000 0.000000 0.000000 -3.364976 -9.784390 -11.680753 -0.608795 -1.099839 16.463607 
0.581521 0.044391 -0.177516 -1.168427 3.240482 -3.784583 0.000000 0.000000 0.000000 -0.335916 1.241158 -0.166945 -1.649058 0.676114 4.162810 0.000000 0.000000 0.000000 -1.932663 0.627925 3.395467 0.655250 -1.179770 7.460245 -1.791562 0.504604 4.303282 -1.819189 3.661923 -0.865878 -67.747428 -9.348790 61.645334 0.266975 -26.336821 -0.014925 -1.597116 0.652643 3.492005 2.530390 7.885228 2.055757 78.161087 3.968391 50.460274 -0.056623 30.189863 -0.037332 -0.000000 0.000000 -0.000000 3.120549 9.761796 -10.596423 2.457919 7.767890 15.286563 0.000000 0.000000 0.000000 -3.400660 -9.778075 -11.672565 -0.402964 -0.774395 16.442082 
0.725155 0.037039 -0.226598 -1.249017 3.366675 -3.790890 0.000000 -0.000000 0.000000 -0.228625 1.359296 -0.193678 -1.807933 0.661702 4.252721 0.000000 0.000000 0.000000 -2.114376 0.641654 3.501832 0.560321 -1.320857 7.852826 -1.940287 0.499027 4.428997 -1.863167 3.455627 -0.809261 -67.656894 -9.211143 61.711230 0.264209 -26.293841 -0.006586 -1.771465 0.652330 3.535302 2.440711 8.252506 2.160999 77.339269 4.115263 50.591122 -0.068198 32.166844 -0.009902 -0.000000 0.000000 -0.000000 3.148630 10.176382 -10.710119 2.562948 7.914530 15.524073 0.000000 0.000000 -0.000000 -3.436327 -9.808951 -11.643274 -0.331411 -0.607581 16.354419 
0.860261 0.030308 -0.274084 -1.334452 3.457185 -3.786456 0.000000 -0.000000 0.000000 -0.107590 1.449429 -0.199633 -1.900253 0.646641 4.315399 0.000000 0.000000 0.000000 -2.218127 0.655691 3.568280 0.515322 -1.372614 7.976559 -2.020542 0.501397 4.516365 -1.843918 3.464950 -0.785631 -67.465625 -8.954593 61.781261 0.250776 -26.326944 0.007157 -1.870349 0.659176 3.570985 2.351016 8.464306 2.219944 76.791223 4.393798 50.121522 -0.061081 34.440216 0.018909 -0.000000 0.000000 -0.000000 3.160105 10.476821 -10.817726 2.646352 8.001893 15.715313 0.000000 0.000000 -0.000000 -3.443448 -9.842794 -11.646491 -0.301776 -0.504479 16.302304 
0.978377 0.024470 -0.319752 -1.431240 3.517973 -3.778797 0.000000 0.000000 0.000000 -0.019735 1.493184 -0.166615 -1.957027 0.636339 4.352897 0.000000 0.000000 0.000000 -2.286466 0.665404 3.604134 0.494669 -1.369518 7.987780 -2.075243 0.510024 4.570429 -1.790409 3.649677 -0.785017 -67.253437 -8.598937 61.856326 0.235993 -26.647093 0.016183 -1.934493 0.662918 3.592263 2.214402 8.688909 2.281354 76.338979 4.581827 49.528949 -0.056015 38.009960 0.050805 -0.000000 0.000000 -0.000000 3.172561 10.670174 -10.923398 2.707875 8.030996 15.882996 0.000000 0.000000 -0.000000 -3.426474 -9.862891 -11.669074 -0.286188 -0.449130 16.275896 
1.080155 0.019467 -0.363450 -1.525142 3.557648 -3.771310 0.000000 0.000000 0.000000 0.048965 1.529634 -0.143350 -2.013093 0.631513 4.365372 0.000000 0.000000 0.000000 -2.342921 0.668491 3.601315 0.474490 -1.359681 7.980351 -2.121413 0.512187 4.580121 -1.703655 3.902991 -0.799096 -67.111456 -8.271303 61.917303 0.225618 -27.269630 0.021498 -1.990813 0.666315 3.587448 2.029790 8.934426 2.349771 75.868204 4.608488 48.886266 -0.058093 43.325034 0.073345 -0.000000 0.000000 -0.000000 3.187882 10.773184 -10.991767 2.747088 8.033941 15.977516 0.000000 0.000000 -0.000000 -3.397949 -9.862846 -11.690679 -0.278871 -0.423194 16.252376 
1.166331 0.015204 -0.405272 -1.607558 3.593795 -3.767433 0.000000 0.000000 0.000000 0.104417 1.562752 -0.126837 -2.067399 0.626765 4.357879 0.000000 0.000000 0.000000 -2.398006 0.669460 3.577933 0.466044 -1.347981 7.977432 -2.168884 0.508795 4.566528 -1.632908 4.166066 -0.818783 -67.059816 -8.001838 61.969930 0.217677 -27.676868 0.024954 -2.049222 0.667507 3.564001 1.826912 9.169536 2.424648 75.339822 4.497591 48.279193 -0.063466 49.831862 0.090204 -0.000000 0.000000 -0.000000 3.205268 10.816346 -11.042084 2.767055 8.013587 16.036868 0.000000 0.000000 -0.000000 -3.369611 -9.851648 -11.701564 -0.269608 -0.399226 16.222199 
1.237507 0.011560 -0.445450 -1.675290 3.632066 -3.768422 0.000000 0.000000 0.000000 0.156446 1.596665 -0.109227 -2.116874 0.624107 4.335599 0.000000 0.000000 0.000000 -2.449778 0.665789 3.545120 0.459239 -1.342140 7.979055 -2.215563 0.503141 4.541656 -1.568854 4.397313 -0.834416 -67.064940 -7.724565 62.024909 0.215650 -27.965898 0.030113 -2.102771 0.667988 3.532976 1.645198 9.361526 2.493032 74.757970 4.313322 47.772635 -0.072515 56.501678 0.106504 0.000000 0.000000 -0.000000 3.221159 10.823999 -11.068330 2.770645 7.978974 16.060330 0.000000 0.000000 -0.000000 -3.344556 -9.834239 -11.694075 -0.258564 -0.375184 16.174805 
